<svg width="273" height="223" viewBox="0 0 273 223" fill="none" xmlns="http://www.w3.org/2000/svg">
<path d="M271 165.573H272.25C272.25 165.532 272.248 165.491 272.244 165.45L271 165.573ZM253.627 178.854L253.374 180.079L253.627 178.854ZM192.63 126.177C197.464 122.572 205.329 119.318 213.266 121.022C221.097 122.703 229.425 129.312 235.068 146.321L237.441 145.534C231.627 128.01 222.778 120.507 213.791 118.578C204.911 116.671 196.318 120.307 191.135 124.173L192.63 126.177ZM237.252 146.68C240.713 142.096 248.093 141.448 255.288 144.9C262.37 148.299 268.748 155.502 269.757 165.696L272.244 165.45C271.14 154.279 264.136 146.373 256.369 142.646C248.715 138.974 239.778 139.186 235.257 145.174L237.252 146.68ZM269.75 165.573C269.75 168.755 267.651 172.148 264.457 174.603C261.274 177.05 257.293 178.336 253.88 177.63L253.374 180.079C257.709 180.975 262.415 179.326 265.981 176.585C269.537 173.852 272.25 169.803 272.25 165.573H269.75ZM253.88 177.63C237.565 174.258 232.067 157.373 237.378 146.475L235.131 145.38C229.173 157.606 235.314 176.345 253.374 180.079L253.88 177.63ZM236.098 147.167C238.162 147.428 241.519 148.262 244.75 149.905C247.988 151.552 250.965 153.943 252.493 157.244L254.762 156.194C252.909 152.19 249.39 149.461 245.883 147.677C242.369 145.889 238.73 144.98 236.411 144.687L236.098 147.167Z" fill="black"/>
<path d="M3.88375 54.1853L131.225 2V113.953M3.88375 54.1853V169.261M3.88375 54.1853L2 168.369C2.37675 168.666 3.2056 169.261 3.507 169.261L3.88375 171.937C4.18515 172.294 68.3081 204.794 100.332 221C101.085 221 223.153 157.664 223.529 157.218C223.831 156.861 223.906 155.285 223.906 154.542M131.225 113.953L223.906 154.542M131.225 113.953L3.88375 169.261M223.906 154.542L100.709 218.77L3.88375 169.261" stroke="black" stroke-width="2.5"/>
<path d="M100.709 218.77C100.709 219.513 100.633 221 100.332 221" stroke="black"/>
<path d="M14.0557 59.9836L125.197 13.5967V104.14L14.0557 154.542V70.2423" stroke="black" stroke-width="2"/>
<path d="M79.1104 131.794C79.1104 133.003 78.1467 133.971 76.9732 133.971C75.7997 133.971 74.8359 133.003 74.8359 131.794C74.8359 130.586 75.7997 129.618 76.9732 129.618C78.1467 129.618 79.1104 130.586 79.1104 131.794Z" fill="#C4C4C4" stroke="black"/>
<path d="M133.863 125.104L38.5449 169.261L90.1598 195.13L184.724 148.743L133.863 125.104Z" stroke="black" stroke-width="1.5"/>
<path d="M122.71 183.864L158.688 167.424L172.308 172.93L135.817 191.142L122.71 183.864Z" stroke="black" stroke-width="1.5"/>
<line y1="-0.25" x2="44.8978" y2="-0.25" transform="matrix(0.889478 0.456978 -0.344165 0.938909 51.7305 167.477)" stroke="black" stroke-width="0.5"/>
<line y1="-0.25" x2="44.8978" y2="-0.25" transform="matrix(0.889478 0.456978 -0.344165 0.938909 60.7725 163.016)" stroke="black" stroke-width="0.5"/>
<line y1="-0.25" x2="44.8978" y2="-0.25" transform="matrix(0.889478 0.456978 -0.344165 0.938909 69.8145 158.556)" stroke="black" stroke-width="0.5"/>
<line y1="-0.25" x2="44.8978" y2="-0.25" transform="matrix(0.889478 0.456978 -0.344165 0.938909 78.8564 154.096)" stroke="black" stroke-width="0.5"/>
<line y1="-0.25" x2="44.8978" y2="-0.25" transform="matrix(0.889478 0.456978 -0.344165 0.938909 87.8984 149.635)" stroke="black" stroke-width="0.5"/>
<line y1="-0.25" x2="44.8978" y2="-0.25" transform="matrix(0.889478 0.456978 -0.344165 0.938909 96.9404 145.175)" stroke="black" stroke-width="0.5"/>
<line y1="-0.25" x2="44.8978" y2="-0.25" transform="matrix(0.889478 0.456978 -0.344165 0.938909 105.982 140.715)" stroke="black" stroke-width="0.5"/>
<line y1="-0.25" x2="44.8978" y2="-0.25" transform="matrix(0.889478 0.456978 -0.344165 0.938909 115.024 136.255)" stroke="black" stroke-width="0.5"/>
<line y1="-0.25" x2="44.8978" y2="-0.25" transform="matrix(0.889478 0.456978 -0.344165 0.938909 124.066 131.794)" stroke="black" stroke-width="0.5"/>
<line y1="-0.25" x2="87.2486" y2="-0.25" transform="matrix(0.898171 -0.439646 0.329713 0.944081 57.7588 171.045)" stroke="black" stroke-width="0.5"/>
<line y1="-0.25" x2="86.8601" y2="-0.25" transform="matrix(0.902188 -0.431342 0.322853 0.946449 64.54 173.721)" stroke="black" stroke-width="0.5"/>
<line y1="-0.25" x2="87.2486" y2="-0.25" transform="matrix(0.898171 -0.439646 0.329713 0.944081 71.3223 177.289)" stroke="black" stroke-width="0.5"/>
<line y1="-0.25" x2="87.926" y2="-0.25" transform="matrix(0.899821 -0.436259 0.32691 0.945055 78.1035 180.857)" stroke="black" stroke-width="0.5"/>
<line y1="-0.25" x2="87.926" y2="-0.25" transform="matrix(0.899821 -0.436259 0.32691 0.945056 84.8848 184.426)" stroke="black" stroke-width="0.5"/>
<line y1="-0.25" x2="88.9944" y2="-0.25" transform="matrix(0.897485 -0.441045 0.330873 0.943675 91.666 187.994)" stroke="black" stroke-width="0.5"/>
</svg>
