<svg width="118" height="104" viewBox="0 0 118 104" fill="none" xmlns="http://www.w3.org/2000/svg">
<path d="M7.48954 60.9105C11.9106 71.7145 19.3356 80.436 26.9858 89.0686C28.8954 91.2234 29.6311 93.9936 31.7092 95.9422C31.967 96.1841 34.7469 99.0328 34.177 99.3116C33.1428 99.8176 31.0892 95.8829 30.7818 95.4373" stroke="#001D3D" stroke-width="3" stroke-linecap="round" stroke-linejoin="round"/>
<path d="M8.46315 64.6086C9.81142 61.1007 10.838 57.1522 14.7143 55.7368C16.5305 55.0736 19.2875 54.9364 20.8908 56.194C24.2441 58.8244 25.5452 63.2576 25.7575 67.3114C25.9844 71.6445 24.5323 74.5487 23.7654 78.568C23.2673 81.1792 22.052 82.386 23.9057 79.5817C25.621 76.9869 27.1447 74.7453 30.1621 73.6915C34.3033 72.2453 38.8312 71.8913 43.0483 73.2938C47.0682 74.6307 49.9289 76.8017 51.9048 80.5883C52.7097 82.1308 54.4055 82.2147 51.9244 81.1972" stroke="#001D3D" stroke-width="3" stroke-linecap="round" stroke-linejoin="round"/>
<path d="M53.3976 66.0043C53.766 65.1179 59.5 54.4346 56.4143 53.334C55.7913 53.1118 54.7132 53.8878 54.2818 54.2846C53.0108 55.4535 52.4651 57.5142 52.1278 59.142C51.7302 61.0606 51.118 63.8008 51.7105 65.7164C52.4688 68.1679 56.7406 70.2411 58.8356 71.3995C61.3965 72.8155 64.6242 74.3704 67.6266 74.0721C70.9069 73.7462 72.1178 70.0502 70.8903 67.3112C70.5415 66.5326 68.7255 65.2389 69.3984 64.5776" stroke="#001D3D" stroke-width="3" stroke-linecap="round" stroke-linejoin="round"/>
<path d="M74.7998 47.7417C75.365 49.5069 76.9693 55.2109 78.2827 57.2631C79.9651 59.8916 79.9321 54.5779 79.9218 54.4821C79.7013 52.4258 78.5094 50.3804 77.4131 48.6588C76.9861 47.9881 76.5584 46.9378 76.0167 46.3732C74.0481 44.3213 79.8657 50.563 81.8889 52.5611C83.1656 53.8219 86.8324 59.669 88.4228 56.941C89.3373 55.3722 87.3116 54.6522 86.3756 53.7678" stroke="#001D3D" stroke-width="3" stroke-linecap="round" stroke-linejoin="round"/>
<path d="M91.9004 35.4792C91.9465 36.2624 92.3123 57.1759 97.754 50.9842C98.6313 49.986 99.0222 48.1323 100.065 47.3643C101.271 46.4757 99.6944 46.9172 98.8508 46.2729" stroke="#001D3D" stroke-width="3" stroke-linecap="round" stroke-linejoin="round"/>
<path d="M95.3467 24.887C99.1862 30.5186 102.864 36.4261 107.295 41.6312C107.689 42.0936 108.844 43.638 109.857 43.4858C110.546 43.3823 111.097 42.468 111.596 42.0474C112.283 41.4687 112.809 40.6486 112.685 39.7212C112.332 37.0906 110.795 36.3891 108.326 36.6274" stroke="#001D3D" stroke-width="3" stroke-linecap="round" stroke-linejoin="round"/>
<path d="M97.0464 35.1882C100.375 32.4904 110.922 25.3774 106.956 27.0003C106.462 27.2025 106.026 27.3226 105.499 27.4349" stroke="#001D3D" stroke-width="3" stroke-linecap="round" stroke-linejoin="round"/>
</svg>
